<svg width="162" height="32" viewBox="0 0 162 32" fill="none" xmlns="http://www.w3.org/2000/svg">
<path d="M50.7991 20.4138H42.2879C41.29 20.4138 40.4417 20.0884 39.7432 19.4376C39.0446 18.7726 38.6953 17.945 38.6953 16.9546V12.9436C38.6953 11.9532 39.0446 11.1326 39.7432 10.4818C40.4417 9.81686 41.29 9.48438 42.2879 9.48438H50.7991V12.031H42.2879C41.6036 12.031 41.2615 12.3352 41.2615 12.9436V16.9546C41.2615 17.563 41.6036 17.8672 42.2879 17.8672H50.7991V20.4138Z" fill="white"/>
<path d="M66.4999 20.4138H63.891V16.2118H55.5082V20.4138H52.942V9.48438H55.5082V13.6652H63.891V9.48438H66.4999V20.4138Z" fill="white"/>
<path d="M82.1235 20.4138H79.5573V16.9334H72.7997V14.3867H79.5573V12.8587C79.5573 12.3069 79.372 12.031 79.0013 12.031H71.7305C71.3741 12.031 71.1959 12.3069 71.1959 12.8587V20.4138H68.6297V12.8587C68.6297 11.9391 68.9148 11.1468 69.4851 10.4818C70.0696 9.81686 70.8181 9.48438 71.7305 9.48438H79.0013C79.928 9.48438 80.6764 9.81686 81.2467 10.4818C81.8312 11.1468 82.1235 11.9391 82.1235 12.8587V20.4138Z" fill="white"/>
<path d="M86.8209 20.4138H84.2547V9.48438H86.8209V20.4138Z" fill="white"/>
<path d="M100.698 20.4138H98.1317L91.5239 13.0497V20.4138H88.9577V9.48438H91.5239L98.1317 16.7848V9.48438H100.698V20.4138Z" fill="white"/>
<path d="M115.959 17.0395C115.959 17.9591 115.681 18.7444 115.125 19.3952C114.526 20.0743 113.77 20.4138 112.858 20.4138H103.363V17.8672H112.858C113.214 17.8672 113.393 17.5913 113.393 17.0395C113.393 16.4877 113.214 16.2118 112.858 16.2118H105.951C105.038 16.2118 104.283 15.8723 103.684 15.1932C103.114 14.5565 102.829 13.7783 102.829 12.8587C102.829 11.9391 103.121 11.1468 103.705 10.4818C104.29 9.81686 105.038 9.48438 105.951 9.48438H115.445V12.031H105.951C105.594 12.031 105.416 12.3069 105.416 12.8587C105.416 13.3963 105.594 13.6652 105.951 13.6652H112.858C113.77 13.6652 114.526 14.0047 115.125 14.6838C115.681 15.3346 115.959 16.1199 115.959 17.0395Z" fill="white"/>
<path d="M131.87 13.177C131.87 14.1533 131.599 14.988 131.058 15.6813C130.473 16.4594 129.703 16.8485 128.748 16.8485H120.665V20.4138H118.099V9.48438H128.748C129.703 9.48438 130.473 9.87345 131.058 10.6516C131.599 11.359 131.87 12.2008 131.87 13.177ZM129.304 13.177C129.304 12.413 129.119 12.031 128.748 12.031H120.665V14.3018H128.748C129.119 14.3018 129.304 13.9269 129.304 13.177Z" fill="white"/>
<path d="M147.659 16.9546C147.659 17.945 147.31 18.7726 146.612 19.4376C145.913 20.0884 145.065 20.4138 144.067 20.4138H137.609C136.611 20.4138 135.762 20.0884 135.064 19.4376C134.365 18.7726 134.016 17.945 134.016 16.9546V12.9436C134.016 11.9532 134.365 11.1326 135.064 10.4818C135.762 9.81686 136.611 9.48438 137.609 9.48438H144.067C145.065 9.48438 145.913 9.81686 146.612 10.4818C147.31 11.1326 147.659 11.9532 147.659 12.9436V16.9546ZM145.093 16.9546V12.9436C145.093 12.3352 144.751 12.031 144.067 12.031H137.609C136.924 12.031 136.582 12.3352 136.582 12.9436V16.9546C136.582 17.563 136.924 17.8672 137.609 17.8672H144.067C144.751 17.8672 145.093 17.563 145.093 16.9546Z" fill="white"/>
<path d="M161.997 12.031H157.036V20.4138H154.47V12.031H149.509V9.48438H161.997V12.031Z" fill="white"/>
<path d="M70.898 14.3864H73.4016V16.9322H70.898V14.3864Z" fill="white"/>
<path fill-rule="evenodd" clip-rule="evenodd" d="M32.2079 17.0938C32.2324 16.7323 32.2449 16.3676 32.2449 16C32.2449 15.5591 32.227 15.1225 32.1917 14.6906H15.7539C15.5231 14.6906 15.336 14.8765 15.336 15.1057V16.6806C15.336 16.9098 15.5231 17.0956 15.7539 17.0956H19.3289V17.0938H32.2079ZM30.5752 23.0987C30.1573 23.9352 29.6678 24.7302 29.1146 25.4759H14.9844C12.5596 25.4759 10.5938 23.5237 10.5938 21.1156V14.879C10.5938 12.4709 12.5595 10.5188 14.9844 10.5188H31.274C31.5551 11.2838 31.779 12.0761 31.9407 12.8906H15.7539C14.5221 12.8906 13.5234 13.8823 13.5234 15.1057V16.6806C13.5234 17.9039 14.5221 18.8956 15.7539 18.8956H27.9019V18.8937H31.9819C31.83 19.7193 31.6142 20.5227 31.3398 21.2987H14.6858V23.0987H30.5752ZM27.5607 27.2759C24.6402 30.1935 20.5939 32 16.1225 32C7.21828 32 0 24.8366 0 16C0 7.16344 7.21828 0 16.1225 0C22.3844 0 27.8124 3.54276 30.4826 8.71875H14.9844C11.5585 8.71875 8.78125 11.4768 8.78125 14.879V21.1156C8.78125 24.5179 11.5585 27.2759 14.9844 27.2759H27.5607Z" fill="white"/>
</svg>
