<svg width="16" height="16" viewBox="0 0 16 16" fill="none" xmlns="http://www.w3.org/2000/svg">
<g clip-path="url(#clip0_3869_27988)">
<path d="M0.500002 8.00157L0.500002 8.00122C0.497051 3.85823 3.8558 0.5 7.99685 0.5C12.1411 0.5 15.5 3.85837 15.5 8.00157C15.5 12.1446 12.1412 15.5 8 15.5C3.85587 15.5 0.500002 12.1418 0.500002 8.00157Z" fill="black" stroke="#E5E7EB"/>
<path d="M6.18745 7.2811L7.99996 5.4561L9.81342 7.28207L10.8681 6.22011L7.99996 3.33203L5.13281 6.21914L6.18745 7.2811Z" fill="#F3BA2F"/>
<path d="M5.44525 8.0346L4.39062 6.97266L3.33595 8.03465L4.39057 9.09659L5.44525 8.0346Z" fill="#F3BA2F"/>
<path d="M6.189 8.78214L8.0015 10.6071L9.81489 8.78125L10.8701 9.84261L10.8696 9.84321L8.0015 12.7312L5.13429 9.84417L5.13281 9.84269L6.189 8.78214Z" fill="#F3BA2F"/>
<path d="M11.6094 9.09715L12.6641 8.03516L11.6094 6.97322L10.5548 8.03521L11.6094 9.09715Z" fill="#F3BA2F"/>
<path d="M9.07015 8.03074H9.07059L8.0004 6.95312L7.20951 7.7495H7.20944L7.11862 7.84102L6.93116 8.02978L6.92969 8.03126L6.93116 8.03282L8.0004 9.10948L9.07059 8.03186L9.07111 8.03126L9.07015 8.03074Z" fill="#F3BA2F"/>
</g>
<defs>
<clipPath id="clip0_3869_27988">
<rect width="16" height="16" fill="white"/>
</clipPath>
</defs>
</svg>
