<svg width="15" height="19" viewBox="0 0 15 19" fill="none" xmlns="http://www.w3.org/2000/svg">
<path d="M10.7435 8.07778C10.8033 5.06961 6.23394 5.48303 7.40892 0.25C7.40892 0.25 4.34091 1.45762 4.87945 5.16208C5.0644 6.43498 4.61834 7.38694 4.61834 7.38694C4.16684 7.47941 3.46511 6.58185 3.7099 5.19472C3.7099 5.19472 2.09974 6.3969 2.09974 7.94179C2.09974 9.48667 2.84498 11.124 2.84498 11.124C0.990032 10.7215 1.17498 8.21922 1.17498 8.21922C1.17498 8.21922 0 9.7913 0 12.756C0 15.0624 2.60019 18.7451 6.79423 18.7451C10.9883 18.7451 14.3555 15.4921 14.3555 12.5982C14.3555 11.3307 13.9257 9.69338 12.9955 8.80127C12.9955 8.80127 13.1206 11.3307 11.8695 11.2111C11.8695 11.2111 12.9031 7.90915 11.8206 6.3969C11.8206 6.3969 11.2983 8.02882 10.7435 8.07778Z" fill="url(#paint0_linear_4266_11279)"/>
<path d="M10.7488 5.80946C11.9673 3.56285 8.94823 3.25279 8.94279 1.87109C8.94279 1.87109 8.4097 3.29631 9.68259 4.27002C10.7216 5.05878 10.7488 5.80946 10.7488 5.80946Z" fill="url(#paint1_linear_4266_11279)"/>
<path d="M4.33925 1.51172C3.87687 1.96866 4.51332 3.85625 3.06635 4.60149C3.06635 4.60149 2.57678 2.52895 4.33925 1.51172Z" fill="url(#paint2_linear_4266_11279)"/>
<path opacity="0.5" d="M0.951954 8.97543C0.549414 9.66628 0 10.9446 0 12.7561C0 14.7796 2.57844 18.5004 6.79423 18.5004C10.9121 18.5004 14.1107 15.329 14.1107 12.6037C14.1107 11.6191 13.8387 10.3626 13.2349 9.47045C13.1914 10.0307 13.0554 10.7923 12.6365 11.1894C12.4189 11.3961 12.1469 11.4886 11.8478 11.456L11.5431 11.4288L11.6356 11.1404C11.6465 11.1133 12.4352 8.53481 11.8641 7.00625C11.6356 7.56654 11.2439 8.29003 10.7652 8.32811L10.4933 8.34986L10.4987 8.07788C10.5205 6.95185 9.82961 6.35348 9.02997 5.66263C7.88762 4.6726 6.5984 3.55201 7.07166 0.707031C6.27746 1.17485 4.73257 2.46407 5.11879 5.1241C5.31462 6.45683 4.85225 7.44687 4.83593 7.49039L4.78153 7.60462L4.66186 7.62638C4.43339 7.6699 4.19404 7.57742 3.97645 7.37071C3.6827 7.0824 3.41616 6.53843 3.40528 5.79863C2.95922 6.25556 2.34453 7.04433 2.34453 7.94188C2.34453 9.41605 3.06257 11.0045 3.06801 11.0208L3.26928 11.4668L2.79059 11.3635C1.53945 11.0915 1.07163 9.92739 0.951954 8.97543Z" fill="url(#paint3_linear_4266_11279)"/>
<path d="M8.94277 1.87109C8.83397 2.69249 9.16036 3.87292 9.68257 4.27002C10.1613 4.63448 10.6998 5.26005 10.7433 5.80946C11.5593 4.21018 10.4115 3.61725 9.75329 3.38334C9.47586 3.28543 8.96453 2.71425 8.94277 1.87109Z" fill="url(#paint4_radial_4266_11279)"/>
<path d="M6.43372 1.63672C4.62773 4.46538 6.97225 7.4518 5.76463 9.24147C4.55701 11.0311 3.33307 9.37747 3.25147 8.25688C3.25147 8.25688 3.26235 11.8797 5.05202 13.3104C6.8417 14.741 1.60867 14.431 0.890625 12.6848C0.890625 12.6848 0.890625 18.4999 6.79274 18.4999C12.6949 18.4999 13.6795 13.0874 13.6795 13.0874C13.6795 13.0874 11.5308 14.9206 10.1001 13.4899C10.1001 13.4899 11.1717 11.6132 11.4437 9.68753C11.4437 9.68753 10.7039 10.1553 9.56701 9.97584C9.56701 9.97584 10.198 7.27229 8.9088 6.38561C7.25512 5.2487 5.85711 2.53972 6.43372 1.63672Z" fill="url(#paint5_linear_4266_11279)"/>
<path d="M6.88702 4.96484C5.94051 6.21054 7.78458 9.40911 5.84803 10.6766C4.7764 11.3783 4.16171 10.5351 4.16171 10.5351C4.16171 10.5351 4.45002 11.8298 5.60324 12.983C6.75647 14.1362 3.86797 15.6974 1.52344 13.6793C1.52344 13.6793 2.32852 18.5261 7.78458 17.7101C13.8064 16.8126 13.3603 12.3357 13.3603 12.3357C13.3603 12.3357 11.7284 14.9032 9.40562 13.6739C9.40562 13.6739 10.8689 11.634 10.8689 10.4644C10.8689 10.4644 9.87888 11.0519 8.74742 10.4862C8.74742 10.4862 9.28595 7.76631 8.64406 7.35833C7.10461 6.37374 6.88702 4.96484 6.88702 4.96484Z" fill="url(#paint6_linear_4266_11279)"/>
<path opacity="0.5" d="M10.7435 8.07778C10.8033 5.06961 6.23394 5.48303 7.40892 0.25C7.40892 0.25 4.34091 1.45762 4.87945 5.16208C5.0644 6.43498 4.61834 7.38694 4.61834 7.38694C4.16684 7.47941 3.46511 6.58185 3.7099 5.19472C3.7099 5.19472 2.09974 6.3969 2.09974 7.94179C2.09974 9.48667 2.84498 11.124 2.84498 11.124C0.990032 10.7215 1.17498 8.21922 1.17498 8.21922C1.17498 8.21922 0 9.7913 0 12.756C0 15.0624 2.60019 18.7451 6.79423 18.7451C10.9883 18.7451 14.3555 15.4921 14.3555 12.5982C14.3555 11.3307 13.9257 9.69338 12.9955 8.80127C12.9955 8.80127 13.1206 11.3307 11.8695 11.2111C11.8695 11.2111 12.9031 7.90915 11.8206 6.3969C11.8206 6.3969 11.2983 8.02882 10.7435 8.07778Z" fill="url(#paint7_radial_4266_11279)"/>
<path opacity="0.5" d="M10.7435 8.07778C10.8033 5.06961 6.23394 5.48303 7.40892 0.25C7.40892 0.25 4.34091 1.45762 4.87945 5.16208C5.0644 6.43498 4.61834 7.38694 4.61834 7.38694C4.16684 7.47941 3.46511 6.58185 3.7099 5.19472C3.7099 5.19472 2.09974 6.3969 2.09974 7.94179C2.09974 9.48667 2.84498 11.124 2.84498 11.124C0.990032 10.7215 1.17498 8.21922 1.17498 8.21922C1.17498 8.21922 0 9.7913 0 12.756C0 15.0624 2.60019 18.7451 6.79423 18.7451C10.9883 18.7451 14.3555 15.4921 14.3555 12.5982C14.3555 11.3307 13.9257 9.69338 12.9955 8.80127C12.9955 8.80127 13.1206 11.3307 11.8695 11.2111C11.8695 11.2111 12.9031 7.90915 11.8206 6.3969C11.8206 6.3969 11.2983 8.02882 10.7435 8.07778Z" fill="url(#paint8_radial_4266_11279)"/>
<path d="M0.371094 11.4948C0.496208 14.5683 3.02569 18.251 6.98037 18.251C10.9351 18.251 12.9097 14.0787 13.0348 11.6362C13.0348 11.6362 12.295 13.0723 10.625 13.3606C8.955 13.6489 10.7392 10.4885 9.56969 8.61719C9.56969 8.61719 8.53614 11.8756 7.06741 11.9953C5.59868 12.1149 4.35298 9.84113 4.35298 8.61719C4.35298 8.61719 3.44999 10.8203 3.67301 12.5719C4.01572 15.2319 0.371094 11.4948 0.371094 11.4948Z" fill="url(#paint9_radial_4266_11279)"/>
<path opacity="0.5" d="M10.7435 8.07778C10.8033 5.06961 6.23394 5.48303 7.40892 0.25C7.40892 0.25 4.34091 1.45762 4.87945 5.16208C5.0644 6.43498 4.61834 7.38694 4.61834 7.38694C4.16684 7.47941 3.46511 6.58185 3.7099 5.19472C3.7099 5.19472 2.09974 6.3969 2.09974 7.94179C2.09974 9.48667 2.84498 11.124 2.84498 11.124C0.990032 10.7215 1.17498 8.21922 1.17498 8.21922C1.17498 8.21922 0 9.7913 0 12.756C0 15.0624 2.60019 18.7451 6.79423 18.7451C10.9883 18.7451 14.3555 15.4921 14.3555 12.5982C14.3555 11.3307 13.9257 9.69338 12.9955 8.80127C12.9955 8.80127 13.1206 11.3307 11.8695 11.2111C11.8695 11.2111 12.9031 7.90915 11.8206 6.3969C11.8206 6.3969 11.2983 8.02882 10.7435 8.07778Z" fill="url(#paint10_radial_4266_11279)"/>
<path opacity="0.5" d="M10.7488 5.80946C11.9673 3.56285 8.94823 3.25279 8.94279 1.87109C8.94279 1.87109 8.4097 3.29631 9.68259 4.27002C10.7216 5.05878 10.7488 5.80946 10.7488 5.80946Z" fill="url(#paint11_radial_4266_11279)"/>
<path d="M4.33925 1.51172C3.88231 1.96866 4.17606 3.41019 3.06635 4.60149C3.06635 4.60149 2.57678 2.52895 4.33925 1.51172Z" fill="url(#paint12_radial_4266_11279)"/>
<path opacity="0.5" d="M4.33925 1.51172C3.87687 1.96866 4.51332 3.85625 3.06635 4.60149C3.06635 4.60149 2.57678 2.52895 4.33925 1.51172Z" fill="url(#paint13_radial_4266_11279)"/>
<path opacity="0.5" d="M10.7435 8.07778C10.8033 5.06961 6.23394 5.48303 7.40892 0.25C7.40892 0.25 4.34091 1.45762 4.87945 5.16208C5.0644 6.43498 4.61834 7.38694 4.61834 7.38694C4.16684 7.47941 3.46511 6.58185 3.7099 5.19472C3.7099 5.19472 2.09974 6.3969 2.09974 7.94179C2.09974 9.48667 2.84498 11.124 2.84498 11.124C0.990032 10.7215 1.17498 8.21922 1.17498 8.21922C1.17498 8.21922 0 9.7913 0 12.756C0 15.0624 2.60019 18.7451 6.79423 18.7451C10.9883 18.7451 14.3555 15.4921 14.3555 12.5982C14.3555 11.3307 13.9257 9.69338 12.9955 8.80127C12.9955 8.80127 13.1206 11.3307 11.8695 11.2111C11.8695 11.2111 12.9031 7.90915 11.8206 6.3969C11.8206 6.3969 11.2983 8.02882 10.7435 8.07778Z" fill="url(#paint14_radial_4266_11279)"/>
<path opacity="0.25" d="M10.7435 8.07778C10.8033 5.06961 6.23394 5.48303 7.40892 0.25C7.40892 0.25 4.34091 1.45762 4.87945 5.16208C5.0644 6.43498 4.61834 7.38694 4.61834 7.38694C4.16684 7.47941 3.46511 6.58185 3.7099 5.19472C3.7099 5.19472 2.09974 6.3969 2.09974 7.94179C2.09974 9.48667 2.84498 11.124 2.84498 11.124C0.990032 10.7215 1.17498 8.21922 1.17498 8.21922C1.17498 8.21922 0 9.7913 0 12.756C0 15.0624 2.60019 18.7451 6.79423 18.7451C10.9883 18.7451 14.3555 15.4921 14.3555 12.5982C14.3555 11.3307 13.9257 9.69338 12.9955 8.80127C12.9955 8.80127 13.1206 11.3307 11.8695 11.2111C11.8695 11.2111 12.9031 7.90915 11.8206 6.3969C11.8206 6.3969 11.2983 8.02882 10.7435 8.07778Z" fill="url(#paint15_radial_4266_11279)"/>
<path opacity="0.25" d="M10.7435 8.07778C10.8033 5.06961 6.23394 5.48303 7.40892 0.25C7.40892 0.25 4.34091 1.45762 4.87945 5.16208C5.0644 6.43498 4.61834 7.38694 4.61834 7.38694C4.16684 7.47941 3.46511 6.58185 3.7099 5.19472C3.7099 5.19472 2.09974 6.3969 2.09974 7.94179C2.09974 9.48667 2.84498 11.124 2.84498 11.124C0.990032 10.7215 1.17498 8.21922 1.17498 8.21922C1.17498 8.21922 0 9.7913 0 12.756C0 15.0624 2.60019 18.7451 6.79423 18.7451C10.9883 18.7451 14.3555 15.4921 14.3555 12.5982C14.3555 11.3307 13.9257 9.69338 12.9955 8.80127C12.9955 8.80127 13.1206 11.3307 11.8695 11.2111C11.8695 11.2111 12.9031 7.90915 11.8206 6.3969C11.8206 6.3969 11.2983 8.02882 10.7435 8.07778Z" fill="url(#paint16_radial_4266_11279)"/>
<path opacity="0.25" d="M10.7435 8.07778C10.8033 5.06961 6.23394 5.48303 7.40892 0.25C7.40892 0.25 4.34091 1.45762 4.87945 5.16208C5.0644 6.43498 4.61834 7.38694 4.61834 7.38694C4.16684 7.47941 3.46511 6.58185 3.7099 5.19472C3.7099 5.19472 2.09974 6.3969 2.09974 7.94179C2.09974 9.48667 2.84498 11.124 2.84498 11.124C0.990032 10.7215 1.17498 8.21922 1.17498 8.21922C1.17498 8.21922 0 9.7913 0 12.756C0 15.0624 2.60019 18.7451 6.79423 18.7451C10.9883 18.7451 14.3555 15.4921 14.3555 12.5982C14.3555 11.3307 13.9257 9.69338 12.9955 8.80127C12.9955 8.80127 13.1206 11.3307 11.8695 11.2111C11.8695 11.2111 12.9031 7.90915 11.8206 6.3969C11.8206 6.3969 11.2983 8.02882 10.7435 8.07778Z" fill="url(#paint17_radial_4266_11279)"/>
<defs>
<linearGradient id="paint0_linear_4266_11279" x1="8.09765" y1="19.2563" x2="4.76298" y2="-4.90981" gradientUnits="userSpaceOnUse">
<stop stop-color="#FF0000"/>
<stop offset="0.2317" stop-color="#FF1500"/>
<stop offset="0.7367" stop-color="#FF3D00"/>
<stop offset="0.9987" stop-color="#FF4C00"/>
</linearGradient>
<linearGradient id="paint1_linear_4266_11279" x1="12.005" y1="18.7172" x2="8.67036" y2="-5.44896" gradientUnits="userSpaceOnUse">
<stop stop-color="#FF0000"/>
<stop offset="0.2317" stop-color="#FF1500"/>
<stop offset="0.7367" stop-color="#FF3D00"/>
<stop offset="0.9987" stop-color="#FF4C00"/>
</linearGradient>
<linearGradient id="paint2_linear_4266_11279" x1="5.97441" y1="19.5488" x2="2.63973" y2="-4.61736" gradientUnits="userSpaceOnUse">
<stop stop-color="#FF0000"/>
<stop offset="0.2317" stop-color="#FF1500"/>
<stop offset="0.7367" stop-color="#FF3D00"/>
<stop offset="0.9987" stop-color="#FF4C00"/>
</linearGradient>
<linearGradient id="paint3_linear_4266_11279" x1="8.0078" y1="15.14" x2="0.720908" y2="-5.6709" gradientUnits="userSpaceOnUse">
<stop stop-color="#FF8000"/>
<stop offset="0.6388" stop-color="#FF5B00"/>
<stop offset="0.9987" stop-color="#FF4C00"/>
</linearGradient>
<radialGradient id="paint4_radial_4266_11279" cx="0" cy="0" r="1" gradientUnits="userSpaceOnUse" gradientTransform="translate(11.1285 -1.79669) scale(9.71049 9.71052)">
<stop offset="0.00134333" stop-color="#FFED1C" stop-opacity="0.6"/>
<stop offset="0.9477" stop-color="#FFED1C" stop-opacity="0.0264782"/>
<stop offset="0.9914" stop-color="#FFED1C" stop-opacity="0"/>
</radialGradient>
<linearGradient id="paint5_linear_4266_11279" x1="5.17671" y1="1.25218" x2="7.81152" y2="16.0318" gradientUnits="userSpaceOnUse">
<stop stop-color="#FF8000"/>
<stop offset="0.022669" stop-color="#FE7F02" stop-opacity="0.9773"/>
<stop offset="0.6663" stop-color="#ED582A" stop-opacity="0.3337"/>
<stop offset="1" stop-color="#E74939" stop-opacity="0"/>
</linearGradient>
<linearGradient id="paint6_linear_4266_11279" x1="7.22455" y1="17.2221" x2="7.79405" y2="6.84456" gradientUnits="userSpaceOnUse">
<stop stop-color="#FFBC47"/>
<stop offset="0.1869" stop-color="#FFB137" stop-opacity="0.8131"/>
<stop offset="0.7223" stop-color="#FF940F" stop-opacity="0.2777"/>
<stop offset="1" stop-color="#FF8900" stop-opacity="0"/>
</linearGradient>
<radialGradient id="paint7_radial_4266_11279" cx="0" cy="0" r="1" gradientUnits="userSpaceOnUse" gradientTransform="translate(7.08266 14.4229) scale(7.51161 6.09792)">
<stop offset="0.00134333" stop-color="#FFBC47"/>
<stop offset="0.2941" stop-color="#FFBF4B" stop-opacity="0.7068"/>
<stop offset="0.5624" stop-color="#FEC656" stop-opacity="0.4382"/>
<stop offset="0.8201" stop-color="#FCD368" stop-opacity="0.1801"/>
<stop offset="1" stop-color="#FBE07A" stop-opacity="0"/>
</radialGradient>
<radialGradient id="paint8_radial_4266_11279" cx="0" cy="0" r="1" gradientUnits="userSpaceOnUse" gradientTransform="translate(7.08266 14.1142) scale(7.28014 5.91002)">
<stop offset="0.00134333" stop-color="white"/>
<stop offset="1" stop-color="white" stop-opacity="0"/>
</radialGradient>
<radialGradient id="paint9_radial_4266_11279" cx="0" cy="0" r="1" gradientUnits="userSpaceOnUse" gradientTransform="translate(3.89165 15.4579) scale(8.94314 10.4125)">
<stop offset="0.00134333" stop-color="#FFED1C" stop-opacity="0.6"/>
<stop offset="0.9477" stop-color="#FFED1C" stop-opacity="0.0264782"/>
<stop offset="0.9914" stop-color="#FFED1C" stop-opacity="0"/>
</radialGradient>
<radialGradient id="paint10_radial_4266_11279" cx="0" cy="0" r="1" gradientUnits="userSpaceOnUse" gradientTransform="translate(7.08307 14.1134) rotate(92.8876) scale(2.82646 2.2944)">
<stop offset="0.00134333" stop-color="white"/>
<stop offset="1" stop-color="white" stop-opacity="0"/>
</radialGradient>
<radialGradient id="paint11_radial_4266_11279" cx="0" cy="0" r="1" gradientUnits="userSpaceOnUse" gradientTransform="translate(8.64532 1.86593) scale(3.20826 3.20827)">
<stop offset="0.00134333" stop-color="#FFED1C"/>
<stop offset="0.1997" stop-color="#FFEE2B" stop-opacity="0.8013"/>
<stop offset="0.5839" stop-color="#FFF254" stop-opacity="0.4167"/>
<stop offset="1" stop-color="#FFF686" stop-opacity="0"/>
</radialGradient>
<radialGradient id="paint12_radial_4266_11279" cx="0" cy="0" r="1" gradientUnits="userSpaceOnUse" gradientTransform="translate(3.35356 3.40937) rotate(-56.4116) scale(2.59876 0.590188)">
<stop offset="0.00134333" stop-color="#FFED1C" stop-opacity="0.6"/>
<stop offset="0.9477" stop-color="#FFED1C" stop-opacity="0.0264782"/>
<stop offset="0.9914" stop-color="#FFED1C" stop-opacity="0"/>
</radialGradient>
<radialGradient id="paint13_radial_4266_11279" cx="0" cy="0" r="1" gradientUnits="userSpaceOnUse" gradientTransform="translate(3.86821 1.37152) rotate(95.0573) scale(2.33512 0.93958)">
<stop offset="0.00134333" stop-color="#FFED1C"/>
<stop offset="0.1997" stop-color="#FFEE2B" stop-opacity="0.8013"/>
<stop offset="0.5839" stop-color="#FFF254" stop-opacity="0.4167"/>
<stop offset="1" stop-color="#FFF686" stop-opacity="0"/>
</radialGradient>
<radialGradient id="paint14_radial_4266_11279" cx="0" cy="0" r="1" gradientUnits="userSpaceOnUse" gradientTransform="translate(7.93259 1.45419) scale(10.0107)">
<stop offset="0.00134333" stop-color="#FF4C00"/>
<stop offset="0.135" stop-color="#FF5B0C" stop-opacity="0.8661"/>
<stop offset="0.3941" stop-color="#FF842C" stop-opacity="0.6067"/>
<stop offset="0.7491" stop-color="#FFC45F" stop-opacity="0.2512"/>
<stop offset="1" stop-color="#FFF686" stop-opacity="0"/>
</radialGradient>
<radialGradient id="paint15_radial_4266_11279" cx="0" cy="0" r="1" gradientUnits="userSpaceOnUse" gradientTransform="translate(12.4857 9.56445) scale(5.31354)">
<stop offset="0.00134333" stop-color="#FFED1C"/>
<stop offset="0.1997" stop-color="#FFEE2B" stop-opacity="0.8013"/>
<stop offset="0.5839" stop-color="#FFF254" stop-opacity="0.4167"/>
<stop offset="1" stop-color="#FFF686" stop-opacity="0"/>
</radialGradient>
<radialGradient id="paint16_radial_4266_11279" cx="0" cy="0" r="1" gradientUnits="userSpaceOnUse" gradientTransform="translate(1.60878 11.4582) scale(5.66355)">
<stop offset="0.00134333" stop-color="#FFED1C"/>
<stop offset="0.1997" stop-color="#FFEE2B" stop-opacity="0.8013"/>
<stop offset="0.5839" stop-color="#FFF254" stop-opacity="0.4167"/>
<stop offset="1" stop-color="#FFF686" stop-opacity="0"/>
</radialGradient>
<radialGradient id="paint17_radial_4266_11279" cx="0" cy="0" r="1" gradientUnits="userSpaceOnUse" gradientTransform="translate(6.99812 10.3135) rotate(86.1102) scale(9.70124 5.89737)">
<stop stop-color="#FF4C00" stop-opacity="0"/>
<stop offset="0.9874" stop-color="#FF4C00" stop-opacity="0.9888"/>
<stop offset="0.9987" stop-color="#FF4C00"/>
</radialGradient>
</defs>
</svg>
