<svg width="20" height="20" viewBox="0 0 20 20" fill="none" xmlns="http://www.w3.org/2000/svg">
<path d="M10 18.9583C5.05833 18.9583 1.04167 14.9417 1.04167 10C1.04167 5.05833 5.05833 1.04167 10 1.04167C14.9417 1.04167 18.9583 5.05833 18.9583 10C18.9583 14.9417 14.9417 18.9583 10 18.9583ZM10 2.29167C5.75 2.29167 2.29167 5.75 2.29167 10C2.29167 14.25 5.75 17.7083 10 17.7083C14.25 17.7083 17.7083 14.25 17.7083 10C17.7083 5.75 14.25 2.29167 10 2.29167Z" fill="#4C76AA"/>
<path d="M10 8.75C10.3417 8.75 10.625 9.03333 10.625 9.375L10.625 13.5417C10.625 13.8833 10.3417 14.1667 10 14.1667C9.65833 14.1667 9.375 13.8833 9.375 13.5417L9.375 9.375C9.375 9.03333 9.65833 8.75 10 8.75Z" fill="#4C76AA"/>
<path d="M10 6.04176C10.1083 6.04176 10.2167 6.06676 10.3167 6.10843C10.4167 6.1501 10.5083 6.20843 10.5917 6.28343C10.6667 6.36677 10.725 6.4501 10.7667 6.55843C10.8083 6.65843 10.8333 6.76676 10.8333 6.8751C10.8333 6.98343 10.8083 7.09176 10.7667 7.19176C10.725 7.29176 10.6667 7.38343 10.5917 7.46676C10.5083 7.54176 10.4167 7.6001 10.3167 7.64176C10.1167 7.7251 9.88333 7.7251 9.68333 7.64176C9.58333 7.6001 9.49167 7.54176 9.40833 7.46676C9.33333 7.38343 9.275 7.29176 9.23333 7.19176C9.19167 7.09176 9.16667 6.98343 9.16667 6.8751C9.16667 6.76676 9.19167 6.65843 9.23333 6.55843C9.275 6.4501 9.33333 6.36676 9.40833 6.28343C9.49167 6.20843 9.58333 6.1501 9.68333 6.10843C9.78333 6.06676 9.89167 6.04176 10 6.04176Z" fill="#4C76AA"/>
</svg>
