<svg width="131" height="26" viewBox="0 0 131 26" fill="none" xmlns="http://www.w3.org/2000/svg">
<path d="M41.0806 16.5833H34.1981C33.3911 16.5833 32.7052 16.3189 32.1403 15.7901C31.5754 15.2498 31.293 14.5774 31.293 13.7727V10.5137C31.293 9.70907 31.5754 9.04234 32.1403 8.51355C32.7052 7.97327 33.3911 7.70312 34.1981 7.70312H41.0806V9.77229H34.1981C33.6448 9.77229 33.3681 10.0194 33.3681 10.5137V13.7727C33.3681 14.267 33.6448 14.5141 34.1981 14.5141H41.0806V16.5833Z" fill="#262B40"/>
<path d="M53.7771 16.5833H51.6674V13.1692H44.8886V16.5833H42.8135V7.70312H44.8886V11.1H51.6674V7.70312H53.7771V16.5833Z" fill="#262B40"/>
<path d="M66.411 16.5833H64.3359V13.7554H58.8714V11.6863H64.3359V10.4448C64.3359 9.99645 64.186 9.77229 63.8863 9.77229H58.0068C57.7185 9.77229 57.5744 9.99645 57.5744 10.4448V16.5833H55.4993V10.4448C55.4993 9.69757 55.7299 9.05383 56.191 8.51355C56.6637 7.97327 57.2689 7.70312 58.0068 7.70312H63.8863C64.6356 7.70312 65.2408 7.97327 65.702 8.51355C66.1747 9.05383 66.411 9.69757 66.411 10.4448V16.5833Z" fill="#262B40"/>
<path d="M70.2096 16.5833H68.1344V7.70312H70.2096V16.5833Z" fill="#262B40"/>
<path d="M81.4311 16.5833H79.356L74.0126 10.6V16.5833H71.9375V7.70312H74.0126L79.356 13.6347V7.70312H81.4311V16.5833Z" fill="#262B40"/>
<path d="M93.7718 13.8417C93.7718 14.5889 93.547 15.2269 93.0973 15.7556C92.6131 16.3074 92.0021 16.5833 91.2643 16.5833H83.5864V14.5141H91.2643C91.5525 14.5141 91.6966 14.29 91.6966 13.8417C91.6966 13.3933 91.5525 13.1692 91.2643 13.1692H85.6788C84.941 13.1692 84.33 12.8933 83.8458 12.3415C83.3846 11.8242 83.1541 11.192 83.1541 10.4448C83.1541 9.69757 83.3904 9.05383 83.8631 8.51355C84.3357 7.97327 84.941 7.70312 85.6788 7.70312H93.3567V9.77229H85.6788C85.3906 9.77229 85.2465 9.99645 85.2465 10.4448C85.2465 10.8816 85.3906 11.1 85.6788 11.1H91.2643C92.0021 11.1 92.6131 11.3759 93.0973 11.9277C93.547 12.4565 93.7718 13.0945 93.7718 13.8417Z" fill="#262B40"/>
<path d="M106.639 10.7034C106.639 11.4966 106.42 12.1748 105.981 12.7381C105.509 13.3704 104.886 13.6865 104.114 13.6865H97.5772V16.5833H95.5021V7.70312H104.114C104.886 7.70312 105.509 8.01925 105.981 8.65149C106.42 9.22626 106.639 9.91024 106.639 10.7034ZM104.563 10.7034C104.563 10.0827 104.414 9.77229 104.114 9.77229H97.5772V11.6173H104.114C104.414 11.6173 104.563 11.3127 104.563 10.7034Z" fill="#262B40"/>
<path d="M119.406 13.7727C119.406 14.5774 119.124 15.2498 118.559 15.7901C117.994 16.3189 117.308 16.5833 116.501 16.5833H111.279C110.472 16.5833 109.786 16.3189 109.221 15.7901C108.656 15.2498 108.374 14.5774 108.374 13.7727V10.5137C108.374 9.70907 108.656 9.04234 109.221 8.51355C109.786 7.97327 110.472 7.70312 111.279 7.70312H116.501C117.308 7.70312 117.994 7.97327 118.559 8.51355C119.124 9.04234 119.406 9.70907 119.406 10.5137V13.7727ZM117.331 13.7727V10.5137C117.331 10.0194 117.055 9.77229 116.501 9.77229H111.279C110.725 9.77229 110.449 10.0194 110.449 10.5137V13.7727C110.449 14.267 110.725 14.5141 111.279 14.5141H116.501C117.055 14.5141 117.331 14.267 117.331 13.7727Z" fill="#262B40"/>
<path d="M131.001 9.77229H126.989V16.5833H124.914V9.77229H120.902V7.70312H131.001V9.77229Z" fill="#262B40"/>
<path d="M57.3335 11.686H59.3581V13.7545H57.3335V11.686Z" fill="#262B40"/>
<g filter="url(#filter0_i_4104_22583)">
<ellipse cx="13.0374" cy="13" rx="13.0374" ry="13" fill="url(#paint0_diamond_4104_22583)"/>
<ellipse cx="13.0374" cy="13" rx="13.0374" ry="13" fill="url(#paint1_diamond_4104_22583)"/>
</g>
<mask id="mask0_4104_22583" style="mask-type:alpha" maskUnits="userSpaceOnUse" x="0" y="0" width="27" height="26">
<ellipse cx="13.0374" cy="13" rx="13.0374" ry="13" fill="url(#paint2_diamond_4104_22583)"/>
<ellipse cx="13.0374" cy="13" rx="13.0374" ry="13" fill="url(#paint3_diamond_4104_22583)"/>
</mask>
<g mask="url(#mask0_4104_22583)">
<path fill-rule="evenodd" clip-rule="evenodd" d="M7.09766 12.0912C7.09766 9.32685 9.34348 7.08594 12.1138 7.08594H26.1838V8.54844H12.1138C10.153 8.54844 8.56336 10.1346 8.56336 12.0912V17.1584C8.56336 19.115 10.153 20.7011 12.1138 20.7011H23.7987V22.1636H12.1138C9.34348 22.1636 7.09766 19.9227 7.09766 17.1584V12.0912Z" fill="white"/>
<path fill-rule="evenodd" clip-rule="evenodd" d="M10.9297 12.2724C10.9297 11.2784 11.7372 10.4727 12.7334 10.4727H26.7576V11.9352H12.7334C12.5467 11.9352 12.3954 12.0861 12.3954 12.2724V13.552C12.3954 13.7382 12.5467 13.8892 12.7334 13.8892H22.5568V15.3517H12.7334C11.7372 15.3517 10.9297 14.5459 10.9297 13.552V12.2724Z" fill="white"/>
<path fill-rule="evenodd" clip-rule="evenodd" d="M28.9297 16.3302C28.9297 14.9828 27.8351 13.8906 26.4848 13.8906H15.6255V15.3531H26.4848C27.0256 15.3531 27.464 15.7906 27.464 16.3302C27.464 16.8698 27.0256 17.3072 26.4848 17.3072H11.8709V18.7697H26.4848C27.8351 18.7697 28.9297 17.6775 28.9297 16.3302Z" fill="white"/>
</g>
<defs>
<filter id="filter0_i_4104_22583" x="0" y="0" width="26.0742" height="26" filterUnits="userSpaceOnUse" color-interpolation-filters="sRGB">
<feFlood flood-opacity="0" result="BackgroundImageFix"/>
<feBlend mode="normal" in="SourceGraphic" in2="BackgroundImageFix" result="shape"/>
<feColorMatrix in="SourceAlpha" type="matrix" values="0 0 0 0 0 0 0 0 0 0 0 0 0 0 0 0 0 0 127 0" result="hardAlpha"/>
<feOffset/>
<feGaussianBlur stdDeviation="2.68353"/>
<feComposite in2="hardAlpha" operator="arithmetic" k2="-1" k3="1"/>
<feColorMatrix type="matrix" values="0 0 0 0 0.160349 0 0 0 0 0.114062 0 0 0 0 0.9125 0 0 0 1 0"/>
<feBlend mode="normal" in2="shape" result="effect1_innerShadow_4104_22583"/>
</filter>
<radialGradient id="paint0_diamond_4104_22583" cx="0" cy="0" r="1" gradientUnits="userSpaceOnUse" gradientTransform="translate(-4.88902 23.2632) rotate(-22.2926) scale(44.8672 44.7756)">
<stop offset="0.421875" stop-color="#402AFD"/>
<stop offset="1" stop-color="#0EFFD4"/>
</radialGradient>
<radialGradient id="paint1_diamond_4104_22583" cx="0" cy="0" r="1" gradientUnits="userSpaceOnUse" gradientTransform="translate(8.06688 6.0125) rotate(-26.1934) scale(20.432 10.798)">
<stop stop-color="#AAFCFF"/>
<stop offset="1" stop-color="white" stop-opacity="0"/>
</radialGradient>
<radialGradient id="paint2_diamond_4104_22583" cx="0" cy="0" r="1" gradientUnits="userSpaceOnUse" gradientTransform="translate(-4.88902 23.2632) rotate(-22.2926) scale(44.8672 44.7756)">
<stop offset="0.421875" stop-color="#402AFD"/>
<stop offset="1" stop-color="#0EFFD4"/>
</radialGradient>
<radialGradient id="paint3_diamond_4104_22583" cx="0" cy="0" r="1" gradientUnits="userSpaceOnUse" gradientTransform="translate(8.06688 6.0125) rotate(-26.1934) scale(20.432 10.798)">
<stop stop-color="#AAFCFF"/>
<stop offset="1" stop-color="white" stop-opacity="0"/>
</radialGradient>
</defs>
</svg>
