<svg width="181" height="36" viewBox="0 0 181 36" fill="none" xmlns="http://www.w3.org/2000/svg">
<path d="M56.7579 22.9641H47.2484C46.1334 22.9641 45.1856 22.598 44.4051 21.8658C43.6246 21.1178 43.2344 20.1866 43.2344 19.0725V14.5601C43.2344 13.4459 43.6246 12.5228 44.4051 11.7906C45.1856 11.0425 46.1334 10.6685 47.2484 10.6685H56.7579V13.5335H47.2484C46.4838 13.5335 46.1015 13.8757 46.1015 14.5601V19.0725C46.1015 19.7569 46.4838 20.0991 47.2484 20.0991H56.7579V22.9641Z" fill="white"/>
<path d="M74.3004 22.9641H71.3855V18.2368H62.0194V22.9641H59.1522V10.6685H62.0194V15.3718H71.3855V10.6685H74.3004V22.9641Z" fill="white"/>
<path d="M91.7565 22.9641H88.8894V19.0486H81.3392V16.1836H88.8894V14.4646C88.8894 13.8438 88.6823 13.5335 88.2682 13.5335H80.1445C79.7463 13.5335 79.5472 13.8438 79.5472 14.4646V22.9641H76.68V14.4646C76.68 13.43 76.9986 12.5387 77.6357 11.7906C78.2888 11.0425 79.1251 10.6685 80.1445 10.6685H88.2682C89.3035 10.6685 90.1398 11.0425 90.7769 11.7906C91.43 12.5387 91.7565 13.43 91.7565 14.4646V22.9641Z" fill="white"/>
<path d="M97.005 22.9641H94.1378V10.6685H97.005V22.9641Z" fill="white"/>
<path d="M112.51 22.9641H109.643L102.26 14.6795V22.9641H99.3924V10.6685H102.26L109.643 18.8815V10.6685H112.51V22.9641Z" fill="white"/>
<path d="M129.561 19.168C129.561 20.2026 129.25 21.0859 128.629 21.8181C127.96 22.5821 127.116 22.9641 126.096 22.9641H115.488V20.0991H126.096C126.494 20.0991 126.693 19.7887 126.693 19.168C126.693 18.5472 126.494 18.2368 126.096 18.2368H118.379C117.359 18.2368 116.515 17.8548 115.846 17.0908C115.209 16.3746 114.89 15.4992 114.89 14.4646C114.89 13.43 115.217 12.5387 115.87 11.7906C116.523 11.0425 117.359 10.6685 118.379 10.6685H128.987V13.5335H118.379C117.98 13.5335 117.781 13.8438 117.781 14.4646C117.781 15.0694 117.98 15.3718 118.379 15.3718H126.096C127.116 15.3718 127.96 15.7538 128.629 16.5178C129.25 17.25 129.561 18.1334 129.561 19.168Z" fill="white"/>
<path d="M147.339 14.8227C147.339 15.921 147.036 16.86 146.431 17.64C145.778 18.5154 144.917 18.9531 143.85 18.9531H134.819V22.9641H131.951V10.6685H143.85C144.917 10.6685 145.778 11.1062 146.431 11.9816C147.036 12.7774 147.339 13.7245 147.339 14.8227ZM144.471 14.8227C144.471 13.9632 144.264 13.5335 143.85 13.5335H134.819V16.0881H143.85C144.264 16.0881 144.471 15.6663 144.471 14.8227Z" fill="white"/>
<path d="M164.98 19.0725C164.98 20.1866 164.589 21.1178 163.809 21.8658C163.028 22.598 162.081 22.9641 160.966 22.9641H153.75C152.635 22.9641 151.687 22.598 150.907 21.8658C150.126 21.1178 149.736 20.1866 149.736 19.0725V14.5601C149.736 13.4459 150.126 12.5228 150.907 11.7906C151.687 11.0425 152.635 10.6685 153.75 10.6685H160.966C162.081 10.6685 163.028 11.0425 163.809 11.7906C164.589 12.5228 164.98 13.4459 164.98 14.5601V19.0725ZM162.112 19.0725V14.5601C162.112 13.8757 161.73 13.5335 160.966 13.5335H153.75C152.985 13.5335 152.603 13.8757 152.603 14.5601V19.0725C152.603 19.7569 152.985 20.0991 153.75 20.0991H160.966C161.73 20.0991 162.112 19.7569 162.112 19.0725Z" fill="white"/>
<path d="M180.999 13.5335H175.456V22.9641H172.589V13.5335H167.046V10.6685H180.999V13.5335Z" fill="white"/>
<path d="M79.2143 16.1832H82.0117V19.0473H79.2143V16.1832Z" fill="white"/>
<path fill-rule="evenodd" clip-rule="evenodd" d="M35.9858 19.2295C36.0133 18.8232 36.0272 18.4132 36.0272 18C36.0272 17.5034 36.0071 17.0115 35.9676 16.525H17.6015C17.3436 16.525 17.1345 16.7341 17.1345 16.992V18.7637C17.1345 19.0216 17.3436 19.2306 17.6015 19.2306H21.5905V19.2295H35.9858ZM34.1621 25.9851C33.695 26.9267 33.1477 27.8216 32.5293 28.6609H16.7355C14.0262 28.6609 11.8298 26.4647 11.8298 23.7556V16.7394C11.8298 14.0303 14.0262 11.8341 16.7355 11.8341H34.9426C35.2563 12.694 35.5063 13.5845 35.6869 14.5H17.6015C16.2251 14.5 15.1094 15.6157 15.1094 16.992V18.7637C15.1094 20.1399 16.2251 21.2556 17.6015 21.2556H31.1745V21.2545H35.7335C35.5638 22.1832 35.3227 23.087 35.0163 23.9601H16.4027V25.9851H34.1621ZM30.7931 30.6859C27.53 33.9679 23.0093 36 18.0136 36C8.06496 36 0 27.9411 0 18C0 8.05887 8.06496 0 18.0136 0C25.0102 0 31.0751 3.98583 34.0584 9.80908H16.7355C12.9077 9.80908 9.80469 12.9119 9.80469 16.7394V23.7556C9.80469 27.5831 12.9077 30.6859 16.7355 30.6859H30.7931Z" fill="white"/>
</svg>
