<svg width="16" height="16" viewBox="0 0 16 16" fill="none" xmlns="http://www.w3.org/2000/svg">
<path d="M7.9987 7.33594C7.82189 7.33594 7.65232 7.40618 7.5273 7.5312C7.40227 7.65622 7.33203 7.82579 7.33203 8.0026V10.6693C7.33203 10.8461 7.40227 11.0157 7.5273 11.1407C7.65232 11.2657 7.82189 11.3359 7.9987 11.3359C8.17551 11.3359 8.34508 11.2657 8.4701 11.1407C8.59513 11.0157 8.66537 10.8461 8.66537 10.6693V8.0026C8.66537 7.82579 8.59513 7.65622 8.4701 7.5312C8.34508 7.40618 8.17551 7.33594 7.9987 7.33594ZM8.25203 4.7226C8.08973 4.65593 7.90768 4.65593 7.74537 4.7226C7.66353 4.75433 7.58877 4.80191 7.52537 4.8626C7.46648 4.9274 7.41913 5.00181 7.38537 5.0826C7.34805 5.16172 7.32978 5.24849 7.33203 5.33594C7.33153 5.42368 7.34834 5.51065 7.38152 5.59188C7.4147 5.6731 7.46358 5.74698 7.52537 5.80927C7.59017 5.86816 7.66458 5.91551 7.74537 5.94927C7.84637 5.99076 7.95601 6.00681 8.06467 5.99601C8.17332 5.98521 8.27766 5.94788 8.36851 5.88732C8.45936 5.82675 8.53394 5.74479 8.58571 5.64865C8.63747 5.55251 8.66482 5.44513 8.66537 5.33594C8.66291 5.15943 8.59386 4.99036 8.47203 4.8626C8.40863 4.80191 8.33387 4.75433 8.25203 4.7226ZM7.9987 1.33594C6.68016 1.33594 5.39123 1.72693 4.2949 2.45947C3.19857 3.19202 2.34409 4.23321 1.8395 5.45138C1.33492 6.66956 1.2029 8.01 1.46013 9.30321C1.71737 10.5964 2.35231 11.7843 3.28466 12.7167C4.21701 13.649 5.40489 14.2839 6.6981 14.5412C7.99131 14.7984 9.33175 14.6664 10.5499 14.1618C11.7681 13.6572 12.8093 12.8027 13.5418 11.7064C14.2744 10.6101 14.6654 9.32115 14.6654 8.0026C14.6654 6.23449 13.963 4.5388 12.7127 3.28856C11.4625 2.03832 9.76681 1.33594 7.9987 1.33594ZM7.9987 13.3359C6.94387 13.3359 5.91272 13.0231 5.03566 12.4371C4.1586 11.8511 3.47501 11.0181 3.07134 10.0436C2.66768 9.06904 2.56206 7.99669 2.76785 6.96212C2.97363 5.92756 3.48158 4.97725 4.22746 4.23137C4.97334 3.48549 5.92365 2.97754 6.95822 2.77175C7.99278 2.56596 9.06514 2.67158 10.0397 3.07525C11.0142 3.47891 11.8472 4.1625 12.4332 5.03956C13.0192 5.91663 13.332 6.94777 13.332 8.0026C13.332 9.41709 12.7701 10.7736 11.7699 11.7738C10.7697 12.774 9.41319 13.3359 7.9987 13.3359Z" fill="#AFBBC2"/>
</svg>
