<svg width="25" height="24" viewBox="0 0 25 24" fill="none" xmlns="http://www.w3.org/2000/svg">
<path d="M12.1016 2C6.59156 2 2.10156 6.49 2.10156 12C2.10156 17.51 6.59156 22 12.1016 22C17.6116 22 22.1016 17.51 22.1016 12C22.1016 6.49 17.6116 2 12.1016 2ZM15.4616 14.3C15.7516 14.59 15.7516 15.07 15.4616 15.36C15.3116 15.51 15.1216 15.58 14.9316 15.58C14.7416 15.58 14.5516 15.51 14.4016 15.36L12.1016 13.06L9.80156 15.36C9.65156 15.51 9.46156 15.58 9.27156 15.58C9.08156 15.58 8.89156 15.51 8.74156 15.36C8.45156 15.07 8.45156 14.59 8.74156 14.3L11.0416 12L8.74156 9.7C8.45156 9.41 8.45156 8.93 8.74156 8.64C9.03156 8.35 9.51156 8.35 9.80156 8.64L12.1016 10.94L14.4016 8.64C14.6916 8.35 15.1716 8.35 15.4616 8.64C15.7516 8.93 15.7516 9.41 15.4616 9.7L13.1616 12L15.4616 14.3Z" fill="white"/>
</svg>
