<svg width="119" height="41" viewBox="0 0 119 41" fill="none" xmlns="http://www.w3.org/2000/svg">
<circle cx="21.2982" cy="20.4193" r="20.3217" fill="white"/>
<g filter="url(#filter0_i_4104_22698)">
<circle cx="21.2979" cy="20.4229" r="10.9424" fill="url(#paint0_diamond_4104_22698)"/>
<circle cx="21.2979" cy="20.4229" r="10.9424" fill="url(#paint1_diamond_4104_22698)"/>
</g>
<mask id="mask0_4104_22698" style="mask-type:alpha" maskUnits="userSpaceOnUse" x="10" y="9" width="23" height="23">
<circle cx="21.2979" cy="20.4229" r="10.9424" fill="url(#paint2_diamond_4104_22698)"/>
<circle cx="21.2979" cy="20.4229" r="10.9424" fill="url(#paint3_diamond_4104_22698)"/>
</mask>
<g mask="url(#mask0_4104_22698)">
<path fill-rule="evenodd" clip-rule="evenodd" d="M16.3086 19.6544C16.3086 17.3276 18.1935 15.4414 20.5187 15.4414H32.3278V16.6724H20.5187C18.873 16.6724 17.5388 18.0075 17.5388 19.6544V23.9197C17.5388 25.5666 18.873 26.9017 20.5187 26.9017H30.326V28.1327H20.5187C18.1935 28.1327 16.3086 26.2465 16.3086 23.9197V19.6544Z" fill="white"/>
<path fill-rule="evenodd" clip-rule="evenodd" d="M19.5352 19.8118C19.5352 18.9751 20.2129 18.2969 21.049 18.2969H32.8197V19.5279H21.049C20.8923 19.5279 20.7653 19.655 20.7653 19.8118V20.8888C20.7653 21.0456 20.8923 21.1727 21.049 21.1727H29.294V22.4037H21.049C20.2129 22.4037 19.5352 21.7255 19.5352 20.8888V19.8118Z" fill="white"/>
<path fill-rule="evenodd" clip-rule="evenodd" d="M34.6367 23.2253C34.6367 22.0912 33.718 21.1719 32.5847 21.1719H23.4704V22.4029H32.5847C33.0386 22.4029 33.4065 22.7711 33.4065 23.2253C33.4065 23.6795 33.0386 24.0477 32.5847 24.0477H20.3191V25.2787H32.5847C33.718 25.2787 34.6367 24.3594 34.6367 23.2253Z" fill="white"/>
</g>
<circle cx="98.6771" cy="20.4193" r="20.3217" fill="white"/>
<path d="M54.6133 25.8974L65.8154 14.6953" stroke="#CDD9EC" stroke-width="1.27297" stroke-linecap="round" stroke-linejoin="round"/>
<path d="M65.8154 25.8974L54.6133 14.6953" stroke="#CDD9EC" stroke-width="1.27297" stroke-linecap="round" stroke-linejoin="round"/>
<rect x="87.7305" y="9.48047" width="21.8849" height="21.8849" rx="10.9424" fill="url(#paint4_linear_4104_22698)"/>
<rect x="87.7305" y="9.48047" width="21.8849" height="21.8849" rx="10.9424" fill="url(#paint5_radial_4104_22698)" fill-opacity="0.82"/>
<rect x="87.7305" y="9.48047" width="21.8849" height="21.8849" rx="10.9424" fill="url(#paint6_radial_4104_22698)"/>
<path d="M102.133 15.7606C101.859 15.7158 101.579 15.7415 101.317 15.8353C101.055 15.9292 100.821 16.0882 100.636 16.2979C100.282 16.6988 100.172 17.2217 100.257 17.745C100.334 18.2175 100.436 18.6967 100.459 19.1514C100.491 19.8367 100.388 20.5216 100.156 21.1658C99.9463 21.7488 99.6473 22.201 99.0068 22.3009C98.9593 22.3085 98.7865 22.314 98.7373 22.317C98.653 22.317 98.5687 22.3119 98.4849 22.3017C97.8444 22.2014 97.5429 21.7492 97.3339 21.1629C97.1019 20.5185 96.999 19.8334 97.0311 19.148C97.054 18.695 97.156 18.2153 97.2327 17.742C97.3176 17.2183 97.2077 16.6959 96.8545 16.2941C96.6685 16.0844 96.4335 15.9256 96.1713 15.8325C95.9091 15.7393 95.628 15.7148 95.354 15.7611C94.5323 15.8961 93.9855 16.6353 93.9805 17.4105C93.9783 17.7092 94.0584 18.0025 94.2116 18.2573C94.4674 18.6849 94.8867 18.996 95.2528 19.3199C95.4952 19.5358 95.9146 20.1497 96.1199 20.8153C96.2444 21.2183 96.3456 21.6264 96.446 22.0388C96.5867 22.6133 96.7808 23.8822 96.9082 24.458C97.1627 25.6112 97.9423 25.8724 98.7232 25.8991H98.7507C99.5315 25.8724 100.324 25.6108 100.578 24.4575C100.706 23.8817 100.899 22.6121 101.041 22.0384C101.142 21.6281 101.242 21.2179 101.367 20.8148C101.572 20.1493 101.992 19.5333 102.234 19.3191C102.6 18.9948 103.019 18.684 103.275 18.2564C103.428 18.0017 103.508 17.7083 103.506 17.4097C103.502 16.6332 102.956 15.894 102.133 15.7606Z" fill="white"/>
<defs>
<filter id="filter0_i_4104_22698" x="10.3555" y="9.48047" width="21.8867" height="21.8867" filterUnits="userSpaceOnUse" color-interpolation-filters="sRGB">
<feFlood flood-opacity="0" result="BackgroundImageFix"/>
<feBlend mode="normal" in="SourceGraphic" in2="BackgroundImageFix" result="shape"/>
<feColorMatrix in="SourceAlpha" type="matrix" values="0 0 0 0 0 0 0 0 0 0 0 0 0 0 0 0 0 0 127 0" result="hardAlpha"/>
<feOffset/>
<feGaussianBlur stdDeviation="0.638675"/>
<feComposite in2="hardAlpha" operator="arithmetic" k2="-1" k3="1"/>
<feColorMatrix type="matrix" values="0 0 0 0 0.160349 0 0 0 0 0.114062 0 0 0 0 0.9125 0 0 0 1 0"/>
<feBlend mode="normal" in2="shape" result="effect1_innerShadow_4104_22698"/>
</filter>
<radialGradient id="paint0_diamond_4104_22698" cx="0" cy="0" r="1" gradientUnits="userSpaceOnUse" gradientTransform="translate(6.25206 29.0617) rotate(-22.3504) scale(37.6732)">
<stop offset="0.421875" stop-color="#402AFD"/>
<stop offset="1" stop-color="#0EFFD4"/>
</radialGradient>
<radialGradient id="paint1_diamond_4104_22698" cx="0" cy="0" r="1" gradientUnits="userSpaceOnUse" gradientTransform="translate(17.1261 14.5413) rotate(-26.2587) scale(17.1585 9.08389)">
<stop stop-color="#AAFCFF"/>
<stop offset="1" stop-color="white" stop-opacity="0"/>
</radialGradient>
<radialGradient id="paint2_diamond_4104_22698" cx="0" cy="0" r="1" gradientUnits="userSpaceOnUse" gradientTransform="translate(6.25206 29.0617) rotate(-22.3504) scale(37.6732)">
<stop offset="0.421875" stop-color="#402AFD"/>
<stop offset="1" stop-color="#0EFFD4"/>
</radialGradient>
<radialGradient id="paint3_diamond_4104_22698" cx="0" cy="0" r="1" gradientUnits="userSpaceOnUse" gradientTransform="translate(17.1261 14.5413) rotate(-26.2587) scale(17.1585 9.08389)">
<stop stop-color="#AAFCFF"/>
<stop offset="1" stop-color="white" stop-opacity="0"/>
</radialGradient>
<linearGradient id="paint4_linear_4104_22698" x1="98.6729" y1="9.48047" x2="98.6729" y2="31.3653" gradientUnits="userSpaceOnUse">
<stop stop-color="#11A97D"/>
<stop offset="1" stop-color="#316EA9"/>
</linearGradient>
<radialGradient id="paint5_radial_4104_22698" cx="0" cy="0" r="1" gradientUnits="userSpaceOnUse" gradientTransform="translate(92.7022 13.1706) rotate(50.8146) scale(19.5524 19.5524)">
<stop stop-color="white" stop-opacity="0.59"/>
<stop offset="0.697917" stop-color="white" stop-opacity="0"/>
<stop offset="1" stop-color="white" stop-opacity="0"/>
</radialGradient>
<radialGradient id="paint6_radial_4104_22698" cx="0" cy="0" r="1" gradientUnits="userSpaceOnUse" gradientTransform="translate(122.121 36.055) rotate(-122.599) scale(31.0026 34.5537)">
<stop stop-opacity="0.23"/>
<stop offset="0.861815" stop-opacity="0"/>
</radialGradient>
</defs>
</svg>
