<svg width="14" height="15" viewBox="0 0 14 15" fill="none" xmlns="http://www.w3.org/2000/svg">
<path d="M11.982 0.0329897C11.5794 -0.0331978 11.1671 0.0047147 10.7825 0.143268C10.398 0.28183 10.0537 0.516599 9.78098 0.826124C9.2613 1.41801 9.09974 2.18989 9.22462 2.9624C9.33784 3.6599 9.48782 4.36744 9.52142 5.03869C9.56856 6.05025 9.41726 7.06134 9.0765 8.01244C8.76803 8.87306 8.32853 9.54056 7.38716 9.68803C7.31735 9.69938 7.06339 9.70744 6.99115 9.71184C6.8672 9.71194 6.74335 9.70444 6.62024 9.68934C5.67888 9.54122 5.23573 8.87372 4.92848 8.00803C4.58762 7.05675 4.43633 6.04547 4.48346 5.03362C4.51716 4.36491 4.66714 3.65677 4.77971 2.95802C4.90459 2.18489 4.74302 1.41363 4.224 0.820499C3.95062 0.510899 3.60529 0.276543 3.21991 0.13903C2.83445 0.00150851 2.4214 -0.0347354 2.01867 0.0336178C0.811059 0.232996 0.00741045 1.32425 6.50981e-05 2.46864C-0.00317358 2.90952 0.114492 3.34252 0.339762 3.71865C0.715579 4.34991 1.33194 4.80928 1.86995 5.28741C2.22617 5.60616 2.84257 6.51244 3.14431 7.49494C3.32725 8.08997 3.47602 8.69241 3.62349 9.30122C3.83041 10.1494 4.11564 12.0225 4.30296 12.8724C4.67694 14.575 5.82271 14.9606 6.97034 15H7.01075C8.15838 14.9606 9.32253 14.5744 9.69708 12.8719C9.88384 12.0218 10.1678 10.1475 10.3765 9.30056C10.5247 8.69494 10.6728 8.08931 10.8557 7.49428C11.1576 6.51178 11.7738 5.60241 12.1294 5.28619C12.6681 4.80741 13.2839 4.34869 13.6596 3.7174C13.8851 3.34132 14.003 2.90832 13.9999 2.46739C13.9939 1.32112 13.192 0.229865 11.982 0.0329897Z" fill="url(#paint0_linear_3869_27984)"/>
<defs>
<linearGradient id="paint0_linear_3869_27984" x1="1.4" y1="1.40625" x2="9.85412" y2="14.9663" gradientUnits="userSpaceOnUse">
<stop stop-color="#11A97D"/>
<stop offset="1" stop-color="#326CAB"/>
</linearGradient>
</defs>
</svg>
