<svg width="24" height="24" viewBox="0 0 24 24" fill="none" xmlns="http://www.w3.org/2000/svg">
<path d="M12.8699 16.5735H13.6282C14.3865 16.5735 15.0165 15.8968 15.0165 15.0802C15.0165 14.0652 14.6549 13.8668 14.0599 13.6568L12.8815 13.2485V16.5735H12.8699Z" fill="white"/>
<path d="M11.9599 0.216816C5.51987 0.24015 0.30487 5.47848 0.328203 11.9185C0.351536 18.3585 5.58987 23.5735 12.0299 23.5501C18.4699 23.5268 23.6849 18.2885 23.6615 11.8485C23.6382 5.40848 18.3999 0.20515 11.9599 0.216816ZM14.6315 12.0001C15.5415 12.3151 16.7665 12.9918 16.7665 15.0801C16.7665 16.8768 15.3549 18.3235 13.6282 18.3235H12.8699V19.0002C12.8699 19.4785 12.4732 19.8752 11.9949 19.8752C11.5165 19.8752 11.1199 19.4785 11.1199 19.0002V18.3235H10.6999C8.78654 18.3235 7.23487 16.7135 7.23487 14.7301C7.23487 14.2518 7.63154 13.8551 8.10987 13.8551C8.5882 13.8551 8.98487 14.2518 8.98487 14.7301C8.98487 15.7451 9.75487 16.5735 10.6999 16.5735H11.1199V12.6301L9.3582 12.0001C8.4482 11.6851 7.2232 11.0085 7.2232 8.92015C7.2232 7.12348 8.63487 5.67682 10.3615 5.67682H11.1199V5.00015C11.1199 4.52182 11.5165 4.12515 11.9949 4.12515C12.4732 4.12515 12.8699 4.52182 12.8699 5.00015V5.67682H13.2899C15.2032 5.67682 16.7549 7.28682 16.7549 9.27015C16.7549 9.74848 16.3582 10.1451 15.8799 10.1451C15.4015 10.1451 15.0049 9.74848 15.0049 9.27015C15.0049 8.25515 14.2349 7.42682 13.2899 7.42682H12.8699V11.3701L14.6315 12.0001Z" fill="white"/>
<path d="M8.98487 8.93182C8.98487 9.94682 9.34653 10.1452 9.94153 10.3552L11.1199 10.7635V7.42682H10.3615C9.6032 7.42682 8.98487 8.10348 8.98487 8.93182Z" fill="white"/>
</svg>
