<svg width="16" height="17" viewBox="0 0 16 17" fill="none" xmlns="http://www.w3.org/2000/svg">
<path d="M13.6937 0.0373883C13.2336 -0.0376242 12.7624 0.00534332 12.3229 0.16237C11.8834 0.319408 11.4899 0.585479 11.1783 0.936274C10.5843 1.60707 10.3997 2.48187 10.5424 3.35738C10.6718 4.14788 10.8432 4.94976 10.8816 5.71051C10.9355 6.85695 10.7626 8.00286 10.3731 9.08076C10.0206 10.0561 9.51832 10.8126 8.44247 10.9798C8.36269 10.9926 8.07245 11.0018 7.98989 11.0068C7.84823 11.0069 7.70668 10.9984 7.56599 10.9813C6.49015 10.8134 5.98369 10.0569 5.63255 9.07577C5.243 7.99765 5.07009 6.85153 5.12396 5.70477C5.16247 4.94689 5.33388 4.14434 5.46252 3.35242C5.60524 2.47621 5.4206 1.60211 4.82742 0.929899C4.515 0.579019 4.12033 0.313415 3.6799 0.157568C3.23937 0.00170964 2.76731 -0.0393667 2.30706 0.0381001C0.926925 0.264062 0.00846908 1.50082 7.43978e-05 2.7978C-0.00362694 3.29746 0.130848 3.78819 0.388299 4.21447C0.817804 4.92989 1.52221 5.45052 2.13708 5.99239C2.5442 6.35364 3.24865 7.38076 3.5935 8.49426C3.80257 9.16863 3.9726 9.85139 4.14113 10.5414C4.37761 11.5026 4.70358 13.6255 4.91766 14.5888C5.34508 16.5184 6.65452 16.9554 7.9661 17H8.01229C9.32386 16.9554 10.6543 16.5176 11.0824 14.5881C11.2958 13.6248 11.6203 11.5005 11.8589 10.5406C12.0282 9.85426 12.1975 9.16789 12.4065 8.49352C12.7515 7.38002 13.4558 6.34939 13.8622 5.99101C14.4778 5.44839 15.1816 4.92851 15.611 4.21306C15.8687 3.78683 16.0035 3.2961 15.9999 2.79637C15.993 1.49727 15.0766 0.260513 13.6937 0.0373883Z" fill="url(#paint0_linear_3835_22883)"/>
<defs>
<linearGradient id="paint0_linear_3835_22883" x1="1.6" y1="1.59375" x2="11.1458" y2="17.0335" gradientUnits="userSpaceOnUse">
<stop stop-color="#11A97D"/>
<stop offset="1" stop-color="#326CAB"/>
</linearGradient>
</defs>
</svg>
