<svg width="20" height="13" viewBox="0 0 20 13" fill="none" xmlns="http://www.w3.org/2000/svg">
<g clip-path="url(#clip0_3835_22885)">
<path d="M4.09701 2.54009C7.3581 -0.846696 12.6471 -0.846696 15.9082 2.54009L16.3003 2.94497C16.4654 3.11458 16.4654 3.38815 16.3003 3.55777L14.9587 4.95297C14.8762 5.03504 14.7472 5.03504 14.6646 4.95297L14.1228 4.38941C11.8473 2.02578 8.1579 2.02578 5.88235 4.38941L5.30444 4.99127C5.22188 5.07334 5.09288 5.07334 5.01032 4.99127L3.66357 3.60154C3.49845 3.43192 3.49845 3.15835 3.66357 2.98874L4.09701 2.54009ZM18.6842 5.42351L19.8813 6.66551C20.0464 6.83512 20.0464 7.10869 19.8813 7.2783L14.4892 12.8755C14.324 13.0451 14.0609 13.0451 13.9009 12.8755L10.0774 8.9033C10.0361 8.85953 9.96904 8.85953 9.92776 8.9033L6.10423 12.8755C5.93911 13.0451 5.67595 13.0451 5.516 12.8755L0.123839 7.2783C-0.0412797 7.10869 -0.0412797 6.83512 0.123839 6.66551L1.32095 5.42351C1.48607 5.25389 1.74923 5.25389 1.90918 5.42351L5.73271 9.39573C5.77399 9.4395 5.84107 9.4395 5.88235 9.39573L9.70588 5.42351C9.871 5.25389 10.1342 5.25389 10.2941 5.42351L14.1176 9.39573C14.1589 9.4395 14.226 9.4395 14.2673 9.39573L18.0908 5.42351C18.2559 5.25389 18.5191 5.25389 18.6842 5.42351Z" fill="#3B99FC"/>
</g>
<defs>
<clipPath id="clip0_3835_22885">
<rect width="20" height="13" fill="white"/>
</clipPath>
</defs>
</svg>
